<svg width="163" height="33" viewBox="0 0 163 33" fill="none" xmlns="http://www.w3.org/2000/svg">
<path d="M16.7318 0.667969C17.4447 0.806352 18.1733 0.839506 18.8833 1.0096C22.8668 1.96531 25.7959 4.31566 27.8926 7.77307C28.7772 9.21602 29.4022 10.8028 29.7391 12.4615C30.119 14.3571 29.2296 16.1914 27.5452 16.941C26.9895 17.1874 26.379 17.2566 25.7923 17.3979C20.687 18.6323 15.5808 19.8614 10.4736 21.0852C9.96909 21.2063 9.96909 21.2186 10.2199 21.6654C11.3616 23.6799 12.9587 25.1149 15.3285 25.4371C17.9412 25.7924 20.2757 25.0205 22.3782 23.4875C23.0477 22.9988 23.5977 22.3797 24.1584 21.7757C25.1026 20.7595 26.2759 20.4063 27.6043 20.6881C28.9326 20.9699 29.688 21.8838 30.0469 23.1581C30.4577 24.6133 29.8984 25.7874 28.9852 26.8642C26.0561 30.3194 22.2419 32.0571 17.8086 32.553C15.1008 32.8557 12.4542 32.5782 9.92152 31.5101C6.27743 29.9727 3.70581 27.3442 2.04233 23.7938C1.23671 22.06 0.715896 20.2077 0.499938 18.3082C-0.209996 12.344 2.1245 6.07932 7.78667 2.79489C9.87683 1.58187 12.1479 0.928878 14.5552 0.734277C14.6764 0.718878 14.7968 0.696741 14.9156 0.667969L16.7318 0.667969ZM8.67895 14.0551C8.65949 14.2973 8.94203 14.1077 9.09699 14.0709C11.3178 13.5424 13.537 13.0105 15.7545 12.4752C17.2255 12.122 18.6951 11.766 20.1669 11.42C20.4343 11.3573 20.5323 11.2644 20.3449 11.0143C20.1482 10.7505 19.9759 10.4672 19.7683 10.2121C18.5078 8.66103 16.9041 7.74569 14.8709 7.86605C11.2859 8.07795 9.09699 10.3447 8.67895 14.0551Z" fill="white"/>
<path d="M162.26 23.4032C162.085 24.1059 161.761 24.7005 161.118 25.0955C159.99 25.7838 157.971 25.5229 157.479 23.5517C156.917 24.1355 156.314 24.6277 155.586 24.9355C153.311 25.897 151.059 25.889 148.883 24.6717C147.253 23.7607 146.379 21.7102 146.593 19.7605C146.888 17.0628 148.659 15.5745 151.327 15.0815C153.159 14.7362 155.048 14.8253 156.84 15.3417C157.478 15.524 157.527 15.4952 157.462 14.8242C157.358 13.743 156.809 12.974 155.777 12.5899C154.616 12.1574 153.422 12.2598 152.23 12.4176C151.658 12.5004 151.095 12.6315 150.545 12.8097C149.398 13.1657 148.329 12.6439 147.951 11.5585C147.599 10.5494 148.135 9.4575 149.205 9.02001C150.368 8.55152 151.599 8.27171 152.85 8.19115C154.262 8.08952 155.679 8.047 157.077 8.34539C160.038 8.98181 161.762 10.8925 162.11 13.9023C162.273 15.3128 162.162 16.7269 162.198 18.1396C162.203 18.3299 162.172 18.5252 162.263 18.7061L162.26 23.4032ZM153.967 22.152C154.104 22.152 154.243 22.1635 154.379 22.152C156.28 21.9711 157.701 20.9865 157.63 18.8322C157.619 18.5158 157.506 18.363 157.221 18.2679C156.233 17.9363 155.223 17.7576 154.184 17.8318C153.455 17.8837 152.738 18.0199 152.123 18.4632C151.843 18.6627 151.619 18.9318 151.474 19.2439C151.329 19.5561 151.268 19.9006 151.296 20.2435C151.325 20.5865 151.442 20.9161 151.637 21.2001C151.831 21.484 152.096 21.7124 152.406 21.863C152.899 22.1022 153.424 22.1736 153.967 22.152Z" fill="white"/>
<path d="M71.1755 23.4528C70.7027 24.0589 70.2385 24.5469 69.6778 24.9267C67.6474 26.2961 65.4621 26.3891 63.2581 25.5177C60.2677 24.3357 58.7808 21.9479 58.3426 18.8724C58.0161 16.5812 58.2417 14.3361 59.4122 12.2841C60.7311 9.97339 62.742 8.69911 65.4117 8.47424C67.6517 8.28469 69.5048 9.05733 71.0335 10.7042C71.1928 10.5601 71.1308 10.39 71.1308 10.2437C71.1308 8.44541 71.1192 6.64715 71.1308 4.84889C71.1365 3.83264 71.7369 2.96126 72.6191 2.62179C73.6339 2.23115 74.679 2.44881 75.3825 3.21569C75.7976 3.66683 76.0231 4.26043 76.0124 4.8734C76.0124 5.73829 76.0124 6.60319 76.0167 7.46808C76.0431 12.78 76.07 18.0916 76.0974 23.403C76.1039 24.7422 75.1929 25.7447 73.8761 25.8752C72.6119 25.9999 71.5185 25.1501 71.272 23.8528C71.2504 23.7439 71.2209 23.6402 71.1755 23.4528ZM63.1132 17.5246C63.0966 18.0955 63.2631 18.9214 63.6682 19.6905C65.0614 22.3342 68.4525 22.6455 70.3048 20.3067C71.5798 18.6959 71.5704 15.7437 70.2853 14.1386C68.7084 12.1688 65.9983 12.0527 64.2743 13.8942C63.3979 14.8298 63.1183 15.9844 63.1132 17.5246Z" fill="white"/>
<path d="M101.106 15.0013C101.342 14.8075 101.485 14.7037 101.61 14.5819C103.298 12.9681 104.978 11.3472 106.67 9.73847C107.107 9.32332 107.54 8.89592 108.086 8.61411C109.043 8.1204 110.128 8.30202 110.791 9.06601C111.467 9.84442 111.507 10.9767 110.898 11.8524C110.443 12.5011 109.817 12.9775 109.225 13.4907C108.386 14.2222 107.549 14.9552 106.695 15.6673C106.431 15.8835 106.612 16.019 106.728 16.1718C108.088 17.9852 109.449 19.7972 110.811 21.6077C111.125 22.0265 111.429 22.4517 111.558 22.9706C111.929 24.4626 110.662 25.8536 109.108 25.6929C108.308 25.6114 107.717 25.2417 107.252 24.6118C105.941 22.8315 104.617 21.0599 103.314 19.2732C103.098 18.9719 102.942 18.9128 102.661 19.1968C102.274 19.5853 101.855 19.9435 101.44 20.3032C101.345 20.3824 101.271 20.4828 101.223 20.5962C101.175 20.7095 101.155 20.8326 101.164 20.9554C101.177 21.7237 101.186 22.4928 101.173 23.2618C101.153 24.366 100.54 25.2475 99.5801 25.5891C98.6316 25.9271 97.5418 25.6691 96.8946 24.9404C96.5133 24.5175 96.2991 23.9703 96.292 23.4009C96.282 22.962 96.287 22.5223 96.2848 22.0834C96.2574 16.4712 96.2296 10.859 96.2012 5.24679C96.2012 5.00029 96.1738 4.75235 96.1897 4.5073C96.2733 3.18762 97.3386 2.26723 98.7332 2.29966C100.007 2.32921 100.993 3.34906 101.027 4.63776C101.112 7.90273 101.08 11.1684 101.099 14.4341C101.107 14.5783 101.106 14.7289 101.106 15.0013Z" fill="white"/>
<path d="M120.938 25.7995C118.425 25.7923 116.2 24.9988 114.388 23.2459C112.772 21.6834 111.92 19.7417 111.813 17.4879C111.697 15.0705 112.422 12.9378 114.047 11.1381C115.399 9.6426 117.093 8.71356 119.075 8.35102C122.307 7.75929 125.209 8.46995 127.622 10.7439C129.09 12.127 129.915 13.8856 130.145 15.8922C130.433 18.4004 129.784 20.6606 128.152 22.5951C126.638 24.397 124.663 25.3988 122.335 25.7195C122.103 25.7513 121.871 25.7808 121.638 25.7916C121.406 25.8024 121.173 25.7995 120.938 25.7995ZM125.374 16.8342C125.4 16.3902 125.286 15.743 125.023 15.1296C124.354 13.5685 123.195 12.5912 121.486 12.4052C119.841 12.2265 118.43 12.7317 117.46 14.135C116.681 15.2637 116.51 16.5308 116.711 17.8728C117.2 21.1442 121.121 22.7429 123.734 20.714C124.921 19.7972 125.368 18.5215 125.374 16.8342Z" fill="white"/>
<path d="M49.0933 8.48238C53.0459 8.41751 56.1054 11.3596 56.9033 14.897C57.1952 16.1943 56.4802 17.2906 55.1807 17.6056C52.2819 18.309 49.3794 18.9973 46.4777 19.6907C46.0215 19.7995 46.0107 19.8219 46.2456 20.2161C47.1516 21.7362 48.6868 22.4 50.48 22.0446C51.7774 21.7873 52.8743 21.1797 53.7313 20.1606C54.4405 19.3173 55.7155 19.1581 56.5047 19.811C57.3321 20.495 57.4244 21.7924 56.7209 22.6688C55.1663 24.6011 53.1042 25.6159 50.6905 25.9792C48.2219 26.3511 45.9501 25.8624 43.971 24.3056C42.1576 22.8793 41.1601 20.9498 40.7665 18.7141C40.3053 16.1194 40.7961 13.7114 42.4408 11.6061C43.8218 9.83954 45.6928 8.90618 47.8846 8.56815C48.2832 8.49613 48.6885 8.46737 49.0933 8.48238ZM48.7891 12.4594C46.5145 12.4976 45.166 14.1604 45.2222 16.5028C45.2272 16.7364 45.331 16.776 45.5371 16.727C47.6456 16.2234 49.7545 15.7223 51.8638 15.2235C52.0419 15.181 52.1298 15.0995 52.0455 14.9028C51.5107 13.6487 50.3669 12.4443 48.7891 12.4594Z" fill="white"/>
<path d="M89.0024 23.371C88.3674 24.1422 87.7202 24.7678 86.9281 25.2327C84.8625 26.4449 81.7683 26.1329 80.0443 24.4838C78.9956 23.4798 78.5581 22.1738 78.3786 20.7626C78.2741 19.9409 78.3066 19.1186 78.3066 18.2962C78.2955 15.7976 78.2924 13.299 78.2972 10.8005C78.3008 9.54059 79.2962 8.53947 80.5697 8.48182C81.875 8.42344 82.9813 9.32004 83.1132 10.564C83.2574 11.9457 83.1529 13.3332 83.1853 14.7177C83.2112 15.966 83.1759 17.2158 83.2055 18.4656C83.2235 19.2584 83.39 20.0289 83.9428 20.6429C84.7688 21.5612 85.8333 21.6419 86.9425 21.3774C88.0143 21.1222 88.6003 20.359 88.859 19.3233C88.9678 18.8908 88.9693 18.4533 88.9678 18.0144C88.9635 15.6266 88.9534 13.2387 88.9541 10.8509C88.9541 9.79213 89.5725 8.92219 90.5441 8.57407C91.0182 8.39904 91.5347 8.37433 92.0233 8.50329C92.512 8.63226 92.949 8.90863 93.275 9.29482C93.6873 9.79069 93.8386 10.3817 93.8393 11.0188C93.8393 13.393 93.8393 15.7671 93.8538 18.1412C93.8638 19.8552 93.8862 21.5693 93.9208 23.2838C93.9467 24.5811 93.0667 25.5937 91.7189 25.7732C90.5751 25.926 89.4125 25.1058 89.1242 23.9389C89.0846 23.7811 89.055 23.6196 89.0024 23.371Z" fill="white"/>
<path d="M138.569 19.6179C139.096 18.0784 139.605 16.5872 140.116 15.0967C140.397 14.2794 140.663 13.4563 140.964 12.6461C141.416 11.4281 142.25 10.8327 143.404 10.8673C143.727 10.8781 144.045 10.958 144.335 11.1017C144.626 11.2455 144.882 11.4497 145.087 11.7007C145.292 11.9517 145.44 12.2436 145.523 12.5569C145.606 12.8701 145.62 13.1974 145.566 13.5168C145.414 14.4091 144.989 15.2019 144.649 16.0236C143.243 19.4351 141.824 22.8432 140.392 26.248C140.042 27.0841 139.625 27.8899 139.062 28.6099C138.266 29.6298 137.245 30.259 135.945 30.4269C134.644 30.5949 133.392 30.5112 132.171 30.0449C131.097 29.6348 130.548 28.7858 130.699 27.7976C130.899 26.4859 132.019 25.7644 133.301 26.1479C133.767 26.2877 134.226 26.3936 134.716 26.3583C135.365 26.3122 135.986 25.7976 136.139 25.1684C136.185 24.9774 136.114 24.8159 136.043 24.6538C134.573 21.2975 133.103 17.9415 131.631 14.5857C131.223 13.6559 130.816 12.7254 130.411 11.7942C130.229 11.3755 130.099 10.9416 130.116 10.4796C130.157 9.35594 130.845 8.53357 131.945 8.29284C133.105 8.03554 134.151 8.45141 134.604 9.4936C135.222 10.9149 135.743 12.3766 136.297 13.8253C136.978 15.607 137.648 17.393 138.327 19.1754C138.376 19.3116 138.394 19.4702 138.569 19.6179Z" fill="white"/>
</svg>
