<svg width="107" height="26" viewBox="0 0 107 26" fill="none" xmlns="http://www.w3.org/2000/svg">
<path d="M40.2109 12.5392V20.2646H37.4357V13.183C37.4357 11.3589 36.4751 10.3933 34.874 10.3933C33.2729 10.3933 32.0988 11.4663 32.0988 13.3976V20.1572H29.3237V8.14007H31.7786L32.0988 9.64224C32.9527 8.46196 34.3403 7.81818 36.0481 7.81818C38.3964 7.81818 40.2109 9.74949 40.2109 12.5392ZM42.4524 14.1486C42.4524 10.5006 45.3343 7.71089 48.9634 7.71089C52.5925 7.71089 55.4745 10.3933 55.4745 14.0414C55.4745 17.6894 52.4858 20.4791 48.9634 20.4791C45.3343 20.4791 42.4524 17.7967 42.4524 14.1486ZM52.6993 14.1486C52.6993 11.8954 51.0982 10.286 48.9634 10.286C46.8287 10.286 45.2276 11.8954 45.2276 14.1486C45.2276 16.4019 46.8287 18.0113 48.9634 18.0113C51.0982 18.0113 52.6993 16.4019 52.6993 14.1486ZM75.9684 12.4319V20.2646H73.0861V13.183C73.0861 11.3589 72.1257 10.3933 70.7379 10.3933C69.2434 10.3933 68.1764 11.4663 68.1764 13.3976V20.2646H65.4014V13.183C65.4014 11.3589 64.4404 10.3933 63.0526 10.3933C61.5587 10.3933 60.4912 11.4663 60.4912 13.3976V20.2646H57.716V8.14007H60.0642L60.3844 9.64224C61.2383 8.56926 62.519 7.81818 64.0135 7.81818C65.6148 7.81818 67.002 8.67655 67.6428 10.1787C68.3898 8.78382 69.8843 7.81818 71.6989 7.81818C74.1538 7.81818 75.9684 9.64224 75.9684 12.4319ZM92.0855 14.1486C92.0855 17.904 89.3105 20.4791 86.0013 20.4791C84.1867 20.4791 82.6928 19.728 81.6251 18.4405L81.305 20.2646H78.8501V3.09715L81.6251 2.77527V9.85681C82.5861 8.56925 84.08 7.92548 85.8946 7.92548C89.4172 7.81818 92.0855 10.3933 92.0855 14.1486ZM89.3105 14.1486C89.3105 11.8954 87.7093 10.286 85.6812 10.286C83.6532 10.286 81.9453 11.8954 81.9453 14.1486C81.9453 16.4019 83.6532 18.0113 85.6812 18.0113C87.7093 18.0113 89.3105 16.4019 89.3105 14.1486ZM104.147 8.14007H106.602V20.2646H104.147L103.827 18.4405C102.866 19.8353 101.265 20.5864 99.4507 20.5864C96.1416 20.5864 93.4733 18.0113 93.4733 14.256C93.4733 10.5006 96.1416 7.92548 99.5575 7.92548C101.372 7.92548 102.866 8.67655 103.934 9.96413L104.147 8.14007ZM103.72 14.1486C103.72 11.8954 102.012 10.286 99.9843 10.286C97.9562 10.286 96.355 11.8954 96.355 14.1486C96.355 16.4019 97.9562 18.0113 99.9843 18.0113C102.012 18.0113 103.72 16.4019 103.72 14.1486ZM13.4197 10.7538L15.5545 9.46626L17.6892 8.1787L19.824 6.89114L21.9587 5.60359V0.667969L19.824 1.95552L17.6892 3.24308L15.5545 4.53063L13.4197 5.81818L11.2849 7.10571V9.57352L9.15019 8.28602L7.01543 6.99846L4.77391 5.71089L2.63916 4.42333L0.504395 3.13578V8.07138L2.63916 9.35894L4.77391 10.6465L6.90866 11.9341L9.04342 13.2216L11.1782 14.5092L9.04342 15.7967L6.90866 17.0842L4.77391 18.3718L2.63916 19.6594L0.504395 20.7324V25.668L2.63916 24.3804L4.77391 23.0928L6.90866 21.8053L9.04342 20.5178L11.1782 19.2302V16.7624L13.3129 18.0499L15.4477 19.3375L17.5824 20.625L19.7173 21.9126L21.852 23.2002V18.2646L19.7173 16.977L17.5824 15.6894L15.4477 14.4019L13.3129 13.1143L11.1782 11.8267L13.4197 10.7538Z" fill="#DBDCE0"/>
</svg>
