<svg width="138" height="27" viewBox="0 0 138 27" fill="none" xmlns="http://www.w3.org/2000/svg">
<g clip-path="url(#clip0_3011_31020)">
<path d="M105.275 11.0991C107.859 12.8669 108.675 15.3145 107.723 18.0341C106.771 20.5497 104.052 21.9095 100.244 21.6376L99.2924 17.0822C100.516 16.4023 102.76 16.8783 102.08 14.7026C101.808 13.9547 100.176 13.6827 98.6805 13.0028L97.6606 21.7056H92.4254L94.6011 1.51251C97.9326 1.51251 101.128 1.30854 104.256 1.51251C106.091 1.64849 107.519 2.80433 107.995 4.70805C108.471 6.67976 108.267 8.58348 106.635 10.0793L105.275 11.0991ZM98.8844 8.71946C100.312 8.31152 101.4 8.03956 102.42 7.63162C102.556 7.56363 102.624 6.33981 102.42 6.27182C101.536 5.31996 100.652 5.18398 99.4284 5.18398L98.8844 8.71946ZM25.3872 12.3229L23.8234 26.3969H18.7241L20.7638 7.69961C23.9594 7.69961 27.1549 7.56363 30.2825 7.7676C32.4581 7.97157 33.7499 9.60333 34.3619 11.643C35.7217 16.7423 32.0502 21.5696 26.8829 21.2296L26.0671 17.2182C29.1266 16.1984 30.0785 15.3145 29.6026 13.6827C29.2626 12.3229 28.2427 11.983 25.3872 12.3229ZM11.4492 6.06785C10.4973 6.06785 9.74945 5.93187 9.20553 6.20383C8.59362 6.61177 7.91372 7.35966 7.84573 8.03956C7.70975 8.37951 8.7296 9.05941 9.4095 9.33137C9.88543 9.53534 10.5653 9.39936 11.1093 9.39936C16.0045 9.46735 18.8601 13.6827 17.2284 18.2381C16.0045 21.5016 12.945 23.4733 9.13754 23.4053L7.98171 18.2381C8.79759 18.1701 9.61347 18.3061 10.1574 17.9661C10.8373 17.5582 11.2452 16.8103 11.7892 16.1984C11.1093 15.7904 10.5653 15.2465 9.88543 14.9066C9.47749 14.7026 8.86558 14.8386 8.32166 14.8386C4.10627 14.6346 1.59064 11.915 1.79461 7.97157C1.99858 4.16413 5.67004 0.492663 9.27352 0.696634C9.68146 0.764624 10.3614 1.24055 10.4293 1.64849C10.9053 3.0083 11.1093 4.43609 11.4492 6.06785ZM123.769 19.4619C121.253 22.0455 117.038 22.7934 113.774 21.3656C112.54 20.8273 111.508 19.913 110.824 18.7531C110.14 17.5932 109.84 16.247 109.967 14.9066C110.171 9.46735 115.202 5.86388 120.437 7.35966C123.633 8.31152 125.673 12.119 124.585 15.1785C124.449 15.5865 123.633 15.9264 123.089 15.9264L115.406 15.9944L115.202 16.7423C116.086 17.0822 117.242 17.8301 117.854 17.4902C120.641 16.1984 121.933 18.442 123.769 19.4619ZM119.485 12.5949L119.757 11.915C119.077 11.643 118.398 11.0311 117.718 11.0991C117.038 11.1671 116.358 11.779 115.678 12.187L116.018 12.7309H118.126L119.485 12.5949ZM51.4274 13.8187C51.4274 18.2381 47.6199 22.0455 43.2006 22.1135C39.4611 22.1135 36.4695 19.1899 36.4016 15.4505C36.3336 11.0311 40.413 6.95172 44.8323 7.0877C48.6398 7.15569 51.4274 10.0113 51.4274 13.8187ZM43.4725 17.0822C45.2403 17.0822 46.736 15.5865 46.6681 14.1587C46.4641 12.7309 45.5802 11.847 44.1524 11.847C42.7246 11.847 41.3648 13.2748 41.3648 14.7026C41.4328 16.1984 42.2487 16.9463 43.4725 17.0822ZM77.8075 7.7676L78.2834 7.49564C82.6348 7.15569 82.6348 7.15569 83.6547 11.4391C83.7226 12.051 83.9266 12.5949 84.1986 13.6827C85.0145 11.915 85.6944 10.6912 86.1023 9.33137C86.5782 7.7676 87.3941 7.15569 89.0259 7.42765C89.8418 7.56363 90.7936 7.42765 92.0174 7.42765L91.2016 9.53534C89.0939 14.4306 86.8502 19.1899 84.9465 24.1532C84.1986 26.1249 83.1107 26.8728 81.139 26.5329H79.0993C79.1673 26.1249 79.0993 25.785 79.2353 25.581C81.207 22.6574 80.5951 19.5979 79.7792 16.4703C79.0313 13.5468 78.4194 10.6912 77.8075 7.7676ZM64.1415 7.56363L67.0651 7.42765C67.1331 3.75619 70.3286 4.43609 72.5723 3.34825V7.22368C73.7281 7.42765 75.2919 7.29167 75.8358 7.97157C76.5837 8.99142 76.5837 10.5552 76.9236 12.119H71.9604C71.6204 14.7026 71.2125 17.1502 71.1445 19.6659C71.0085 21.3656 70.5326 21.9095 68.9008 21.7736C67.949 21.6376 67.0651 21.7736 65.7733 21.7736L66.6571 12.5949C64.1415 11.711 65.0254 9.39936 64.1415 7.56363ZM133.763 7.35966C136.687 7.69961 136.687 7.69961 137.231 12.119H133.151L132.064 21.5696H127.032L127.576 15.1105C127.644 13.9547 128.528 12.6629 126.556 11.711C125.809 11.3711 125.876 9.19539 125.469 7.69961C126.148 7.63162 126.76 7.63162 127.304 7.49564C127.712 7.42765 128.392 7.0877 128.392 6.95172C128.664 5.86388 128.664 5.31996 129.208 4.91202C129.956 4.3681 131.18 4.30011 132.132 3.96016L133.763 3.48423V7.35966ZM63.3936 11.847L62.9177 12.051C58.7703 11.575 58.4303 13.0708 58.2264 16.8103L57.6145 21.6376L55.7787 21.7056H52.5152C52.8552 18.51 53.0591 15.3825 53.739 12.5269C54.4869 9.19539 58.2944 6.88373 61.6259 7.49564C62.0338 7.56363 62.5097 8.03956 62.6457 8.4475L63.3936 11.847ZM6.55392 20.8217C6.62191 22.5214 5.12612 24.0172 3.42637 24.0172C1.79461 24.0172 0.366819 22.5894 0.298829 20.9577C0.230839 19.3259 1.52265 17.8981 3.2224 17.8301C4.99014 17.6942 6.48593 19.1219 6.55392 20.8217ZM19.1321 3.21227C19.2001 4.98001 17.7723 6.47579 16.0725 6.47579C14.4408 6.47579 13.081 5.11599 13.013 3.41624C12.945 1.64849 14.3048 0.220703 16.0725 0.220703C17.7723 0.220703 19.0641 1.51251 19.1321 3.21227Z" fill="#DBDCE0"/>
</g>
<defs>
<clipPath id="clip0_3011_31020">
<rect width="137" height="26.4481" fill="white" transform="translate(0.29895 0.220703)"/>
</clipPath>
</defs>
</svg>
